<svg xmlns="http://www.w3.org/2000/svg" version="1.1" xmlns:xlink="http://www.w3.org/1999/xlink" xmlns:svgjs="http://svgjs.dev/svgjs" viewBox="0 0 7.731529861191713 7.947082670910756"><g transform="matrix(1,0,0,1,2.164246804790096,2.5395502151118485)"><rect width="7.947082670910756" height="7.947082670910756" x="-2.2720232096496176" y="-2.539550215111848" fill="#ffffff"></rect><g><path d=" M 1.5743542829839974 -1.7784230187004488 C 1.5702502456874456 -1.818211922654548 1.6106634959925847 -1.845502382521948 1.6085088764118949 -1.86639155709785 C 1.6075854680201709 -1.8753440604875222 1.5988068797700405 -1.8824810338190314 1.584880763386106 -1.8810446207652385 L 1.4098095859880706 -1.8629868566604104 C 1.395883469604136 -1.861550443606617 1.3887464962726266 -1.8527718553564871 1.3896699046643506 -1.8438193519668147 C 1.3918245242450404 -1.8229301773909128 1.436957417441214 -1.8044633977110993 1.441061454737766 -1.7646744937570003 L 1.4693793120839738 -1.4901310564737174 L 1.3198056104639038 -1.4003106368372547 L 1.2838952841190752 -1.7484635464356204 C 1.2797912468225232 -1.7882524503897193 1.3202044971276623 -1.8155429102571194 1.3180498775469724 -1.8364320848330213 C 1.3171264691552484 -1.8453845882226938 1.308347880905118 -1.852521561554203 1.2944217645211835 -1.85108514850041 L 1.1193505871231482 -1.833027384395582 C 1.1054244707392136 -1.8315909713417886 1.0982874974077041 -1.8228123830916587 1.0992109057994284 -1.8138598797019863 C 1.101365525380118 -1.7929707051260844 1.1464984185762916 -1.7745039254462707 1.1506024558728436 -1.7347150214921716 L 1.2073407714976727 -1.1846334243267536 C 1.2114448087942247 -1.1448445203726547 1.1710315584890856 -1.1175540605052545 1.1731861780697752 -1.0966648859293526 C 1.1741095864614994 -1.0877123825396804 1.1828881747116295 -1.080575409208171 1.1968142910955644 -1.0820118222619641 L 1.3718854684935997 -1.1000695863667922 C 1.3858115848775343 -1.1015059994205854 1.3929485582090437 -1.1102845876707155 1.3920251498173195 -1.1192370910603877 C 1.3898705302366299 -1.1401262656362898 1.3447376370404562 -1.1585930453161033 1.3406335997439043 -1.1983819492702024 L 1.3345801447314902 -1.2570705826024984 L 1.4841538463515602 -1.3468910022389613 L 1.4977997703625952 -1.2145928965915822 C 1.501903807659147 -1.1748039926374831 1.461490557354008 -1.147513532770083 1.4636451769346976 -1.126624358194181 C 1.4645685853264219 -1.1176718548045088 1.473347173576552 -1.1105348814729994 1.4872732899604866 -1.1119712945267926 L 1.6623444673585221 -1.1300290586316206 C 1.6762705837424567 -1.1314654716854138 1.6834075570739662 -1.140244059935544 1.682484148682242 -1.1491965633252161 C 1.6803295291015523 -1.1700857379011183 1.6351966359053784 -1.188552517580932 1.6310925986088267 -1.2283414215350308 M 2.113228236194503 -1.739468283074049 C 2.123167429073842 -1.7383671723133638 2.1267026619213034 -1.7339510508573541 2.1257116622366867 -1.725005777265949 L 2.106992779305038 -1.556039498317186 C 2.106222001772558 -1.5490820633016487 2.103353274588142 -1.5413509311503146 2.0798353841125685 -1.5288645855048135 L 1.9739498214344526 -1.4721790704560922 L 2.0048910338097077 -1.751470390365518 M 2.1982227243027554 -1.1716567500886614 C 2.192696733276109 -1.1853484783642818 2.162623897246149 -1.295328588080153 2.1348663134169445 -1.4171256181751628 C 2.1837798218678914 -1.440884168026094 2.2313690778026984 -1.4617710710892917 2.236103854073645 -1.5045096004704495 L 2.261979956949748 -1.7380806331349161 C 2.2692472879702708 -1.8036793061385534 2.2308060101591023 -1.8381215499714485 2.164213417867531 -1.8454989920680396 L 1.8629457625474908 -1.8778687288288682 C 1.849030892516416 -1.8794102838938276 1.8401986496043967 -1.8723398181989048 1.83920764991978 -1.8633945446074995 C 1.836895317322341 -1.8425222395608878 1.8771012919539227 -1.8149273196674613 1.8726968489111817 -1.7751705481501054 L 1.8118054238452883 -1.2255331819226585 C 1.8074009808025473 -1.1857764104053024 1.7621298966718135 -1.1676510430537692 1.7598175640743745 -1.1467787380071575 C 1.7588265643897578 -1.1378334644157522 1.7658970300846808 -1.1290012215037328 1.7798119001157553 -1.1274596664387735 L 1.954741694792122 -1.1080801170507133 C 1.9686565648231964 -1.106538561985754 1.977488807735216 -1.1136090276806772 1.9784798074198326 -1.1225543012720822 C 1.9807921400172717 -1.143426606318694 1.94058616538569 -1.1710215262121202 1.944990608428431 -1.2107782977294763 L 1.9573230489481055 -1.3220972579780732 C 1.9579837154045165 -1.3280607737056767 1.9593079679206562 -1.3309324204934097 1.9625099479365948 -1.332589925841072 L 2.001817516339725 -1.3513759596490162 C 2.001817516339725 -1.3513759596490162 2.0516819838788325 -1.1657566317840515 2.0504707620420786 -1.1548235196167786 C 2.048048318368571 -1.1329572952822327 2.024857841517886 -1.132508092168007 2.023206175376858 -1.1175993028489986 C 2.0222151756922413 -1.1086540292575935 2.0302795606750985 -1.0997116752695055 2.044194430706173 -1.0981701202045462 L 2.2161424675187376 -1.0791209040446916 C 2.2270755796860104 -1.077909682207938 2.237895661173898 -1.0847599257507239 2.2388866608585145 -1.093705199342129 C 2.241309104532022 -1.1155714236766747 2.222204415909141 -1.115675695546109 2.1982227243027554 -1.1716567500886614" fill="#202020" fill-rule="nonzero"></path></g><g><path d=" M -0.7704562938550922 0.5268536630943028 L -0.8217665790066286 0.6916175864177598 L -0.8797018609882508 0.673575555256752 L -0.8646842165536546 0.6253519679425694 L -1.0574961310388404 0.6700056453376648 L -0.9262148430565136 0.8229347215215117 L -0.9097371498574428 0.770022729885117 L -0.8518018678758208 0.7880647610461249 L -0.9031121530273574 0.9528286843695817 L -0.9610474350089794 0.934786653208574 L -0.9475941285363204 0.8915863562396188 L -1.1195033012850981 0.6815540888744048 L -1.2953184633680552 0.6268022602066067 L -1.3115875781722008 0.679044479796971 L -1.3691879741308077 0.6611067378334258 L -1.3178776889792712 0.49634281450996887 L -1.2602772930206643 0.5142805564735141 L -1.274773491467948 0.5608297136726209 L -1.0972838992699152 0.6161029883277314 L -0.8406977011372859 0.5483281826490836 L -0.8283915758367142 0.508811631933295 L -0.7704562938550922 0.5268536630943028 M -1.4811744417723665 1.197219984524929 Q -1.4755034998150363 1.1424451653960908 -1.450398089792807 1.0992032776110898 Q -1.4252926797705778 1.0559613898260891 -1.3839288801173153 1.0242762317385106 Q -1.3425650804640525 0.9925910736509322 -1.2890158247009535 0.9794460672551136 Q -1.2354665689378543 0.966301060859295 -1.1799939814124705 0.9720442441154449 Q -1.1227769728957224 0.9779680306186435 -1.0744701030878527 1.001834708741245 Q -1.0261632332799833 1.0257013868638463 -0.9924927088319648 1.0632155611593148 Q -0.9588221843839466 1.1007297354547834 -0.9421879128863673 1.149527195862909 Q -0.925553641388788 1.1983246562710346 -0.9313329452943477 1.2541461279946913 Q -0.937148369849317 1.3103164839166208 -0.9634449150640039 1.354845546546484 Q -0.9897414602786906 1.399374609176347 -1.0303652097380853 1.429020643048403 Q -1.0709889591974802 1.4586666769204588 -1.1231426781674878 1.4719561659139164 Q -1.1752963971374957 1.485245654907374 -1.2325134056542437 1.4793218684041753 Q -1.2897304141709918 1.4733980819009769 -1.337862841879725 1.4495494641030802 Q -1.385995269588458 1.4257008463051837 -1.4198402361356128 1.3881686116850103 Q -1.4536852026827676 1.3506363770648369 -1.470319474180347 1.3018389166567113 Q -1.4869537456779263 1.2530414562485857 -1.4811744417723665 1.197219984524929 M -1.4162819808936156 1.2039384253151422 Q -1.4205803381733755 1.2454556449096117 -1.4069706551260464 1.2808928818640197 Q -1.393360972078717 1.316330118818428 -1.3670342298810694 1.3430341978772864 Q -1.3407074876834217 1.3697382769361446 -1.3040155740998414 1.3865841430579027 Q -1.2673236605162608 1.4034300091796608 -1.2251086725252454 1.4078006077582403 Q -1.1818470319394114 1.412279568285049 -1.140088020737802 1.402321693261824 Q -1.0983290095361924 1.3923638182385996 -1.0677995265921574 1.3699593658165974 Q -1.0372700436481224 1.3475549133945952 -1.0186259986799173 1.3156332786097251 Q -0.9999819537117124 1.283711643824855 -0.9962254061730986 1.2474276872044783 Q -0.9919270488933386 1.2059104676100085 -1.005518671615963 1.170298788556464 Q -1.0191102943385872 1.1346871095029196 -1.045437036536235 1.1079830304440612 Q -1.0717637787338827 1.0812789513852028 -1.1086301344165996 1.0644150249387399 Q -1.1454964900993165 1.047551098492277 -1.1873625938920591 1.0432166205631073 Q -1.2362063816502586 1.0381597296457425 -1.275890147986936 1.0485087706645622 Q -1.3155739143236131 1.0588578116833818 -1.3433061625335532 1.079788747984593 Q -1.371038410743493 1.1007196842858038 -1.3915110171786744 1.131570445003238 Q -1.4119836236138557 1.1624212057206724 -1.4162819808936156 1.2039384253151422 M -0.9654244167161921 1.5835563054358974 L -0.9467655947315766 1.754760308576435 L -1.007087982803497 1.7613345981962687 L -1.0129782422894755 1.707288527958421 L -1.2591493751147698 1.7341177098751999 Q -1.3034322842773935 1.738943922486292 -1.3335564835737612 1.7522825755557998 Q -1.363680682870129 1.7656212286253077 -1.381462262640429 1.7853768815799471 Q -1.399243842410729 1.8051325345345863 -1.4056685184875581 1.8303541385872695 Q -1.4120931945643875 1.8555757426399524 -1.4089390556138315 1.8845165415415097 Q -1.405670911640966 1.9145033934154123 -1.3949150516508952 1.938734626247332 Q -1.3841591916608247 1.9629658590792516 -1.3631988097802403 1.9788520105325635 Q -1.3422384278996558 1.9947381619858753 -1.3095994488552969 2.0012365137168278 Q -1.276960469810938 2.0077348654477802 -1.2298880860553931 2.0026046394438635 L -0.9837169532300991 1.9757754575270845 L -0.9899492277830052 1.9185912283722004 L -0.9296268397110847 1.9120169387523664 L -0.9109680177264693 2.083220941892904 L -0.9712904057983899 2.089795231512738 L -0.9764206318023065 2.042722847757193 L -1.2149207094970673 2.0687159928437038 Q -1.2721049386519516 2.07494826739661 -1.3181169239862658 2.063909343260463 Q -1.36412890932058 2.0528704191243157 -1.3971178934486264 2.0285925014920845 Q -1.430106877576673 2.0043145838598533 -1.4496895091288273 1.9686964356771197 Q -1.4692721406809814 1.9330782874943861 -1.4739463465956613 1.890190115628223 Q -1.4785065474880315 1.8483479967344054 -1.4671356121707375 1.8102384112038368 Q -1.4557646768534436 1.772128825673268 -1.4290716390466454 1.7418756482555817 Q -1.402378601239847 1.7116224708378955 -1.3613558460333286 1.6914508133371433 Q -1.3203330908268105 1.671279155836391 -1.2652409676166172 1.6652748913281035 L -1.0204645720877836 1.638597716107737 L -1.0257468047881126 1.5901305950557314 L -0.9654244167161921 1.5835563054358974 M -0.8913005488710805 2.144087364006934 L -0.8235590607915976 2.354788104576004 Q -0.8127161284682572 2.388513579690863 -0.8123859737840807 2.419908290867981 Q -0.8120558190999041 2.4513030020451 -0.8225427369039285 2.4777015486721368 Q -0.833029654707953 2.5041000952991737 -0.8549837037428761 2.5240535350805327 Q -0.8769377527777993 2.544006974861892 -0.9103293122974617 2.5547425514196545 Q -0.9293625012236693 2.560861830057579 -0.9500956099514233 2.5599748053456066 Q -0.9708287186791773 2.5590877806336345 -0.9906081948946004 2.551999260273895 Q -1.0103876711100235 2.5449107399141555 -1.0281103364111799 2.5321871234806963 Q -1.0458330017123365 2.5194635070472375 -1.058845303785349 2.501909602242189 Q -1.059834481193071 2.5114384055434584 -1.0639421788723724 2.522154046415314 Q -1.0680498765516737 2.532869687287169 -1.0754848818844776 2.543549783263633 Q -1.0829198872172814 2.554229879240097 -1.0934556403739686 2.5644331589603957 Q -1.103991393530656 2.5746364386806944 -1.1171688507027568 2.5829258081476953 L -1.2183431128091222 2.6464021207848285 L -1.2042795075184531 2.6901450637555864 L -1.2675087590746565 2.711210490405729 L -1.2991787099200565 2.612705389822725 L -1.1573748220446847 2.52548191963422 Q -1.1192973169732094 2.5018184212514987 -1.1065803457683865 2.474334468670222 Q -1.093863374563563 2.4468505160889453 -1.1056725087771022 2.4101198006173163 L -1.1266068830647396 2.3450062595539745 L -1.3035821485189505 2.4019048153101172 L -1.287264072151151 2.452659985780004 L -1.3446975545249704 2.471125177459356 L -1.3975165911891632 2.3068387046226166 L -1.3400831088153438 2.2883735129432647 L -1.3246238785721653 2.336457358651579 L -0.9336087165969181 2.210743757160177 L -0.9490679468400964 2.1626599114518634 L -0.8913005488710805 2.144087364006934 M -0.9125669865437032 2.2761912138187155 L -1.071844725452493 2.3273999139992436 L -1.0406041976694036 2.4245693522014617 Q -1.0344849190314789 2.443602541127669 -1.0243767862385922 2.4578531954158445 Q -1.0142686534457055 2.4721038497040198 -1.0005474116773785 2.4804032647709744 Q -0.9868261699090517 2.488702679837929 -0.9698734884940381 2.490436702376059 Q -0.9529208070790247 2.4921707249141885 -0.9332197869624238 2.4858367347451087 Q -0.8954873247052053 2.4737055332348366 -0.8817508342670966 2.444235859530076 Q -0.8680143438289879 2.414766185825315 -0.8839029971344767 2.3653466777362144 L -0.9125669865437032 2.2761912138187155 M -0.5903957310219766 3.059528034452242 Q -0.5831689856546678 3.041866556276671 -0.5832572651948928 3.026046115843614 Q -0.583345544735118 3.010225675410557 -0.5880988425136413 2.994196032387748 Q -0.5928521402921647 2.9781663893649393 -0.6013349317268529 2.964441852710252 Q -0.6153499784450336 2.9417665312807695 -0.6310825546023 2.9279871891240274 Q -0.6468151307595664 2.914207846967286 -0.6626812346387279 2.9085516212822835 Q -0.6785473385178891 2.902895395597281 -0.6939854798971622 2.9046029056179 Q -0.7094236212764351 2.906310415638519 -0.7225514389461358 2.914424390054308 Q -0.7422431654506867 2.926595351677991 -0.7499931249245921 2.941075344384296 Q -0.7577430843984976 2.9555553370906007 -0.75841418562439 2.9708142873018746 Q -0.7590852868502825 2.9860732375131485 -0.7552405495841235 3.001633594568899 Q -0.7513958123179643 3.0171939516246495 -0.7481965048348791 3.031710050456674 L -0.7306377124305815 3.1041496295639823 Q -0.7225089633529573 3.136648190154906 -0.7207318731684482 3.1642072897328237 Q -0.7189547829839392 3.1917663893107413 -0.7253547374107076 3.2151019151851337 Q -0.731754691837476 3.238437441059526 -0.7469284098605081 3.2579182102492927 Q -0.7621021278835404 3.2773989794390594 -0.7880594037304485 3.293442519761187 Q -0.8161051960248089 3.310776919649463 -0.8470736830380797 3.3140427599444546 Q -0.8780421700513507 3.3173086002394463 -0.9083695672604817 3.307601897314951 Q -0.9386969644696126 3.2978951943904553 -0.9663030201205854 3.2755795479239214 Q -0.9939090757715582 3.2532639014573874 -1.0149316458488291 3.219250919313163 Q -1.0365074414544493 3.1843428586914593 -1.0439068211877085 3.1546921953141056 Q -1.0513062009209677 3.1250415319367524 -1.048448284288931 3.099978041940373 Q -1.0455903676568945 3.0749145519439938 -1.0348537659060737 3.0542590441605895 Q -1.024117164155253 3.0336035363771856 -1.0097193562852063 3.01687019545283 L -1.0237344030033868 2.9941948740233473 L -0.9724165702945572 2.962476610397991 L -0.9259456259132213 3.0376632025062764 Q -0.9590635295799661 3.058132547055198 -0.968454466262584 3.0736267865634765 Q -0.9778454029452021 3.089121026071755 -0.9792002100693553 3.107276584294686 Q -0.9805550171935085 3.1254321425176177 -0.9744838957790678 3.1455953249786943 Q -0.968412774364627 3.1657585074397705 -0.9555041787031449 3.1866436719142945 Q -0.9429644000605621 3.2069321174038317 -0.9281403844156599 3.220242173593515 Q -0.9133163687707576 3.2335522297831982 -0.8971166766359 3.239414610705969 Q -0.8809169845010423 3.24527699162874 -0.8641579721338685 3.2433715910637866 Q -0.8473989597666947 3.241466190498833 -0.8309891876795689 3.231323722479097 Q -0.8127892586374839 3.2200748034026625 -0.8048113971974915 3.204629274692472 Q -0.7968335357574992 3.189183745982281 -0.7952590913606932 3.171717110999061 Q -0.7936846469638871 3.1542504760158407 -0.7967752208053792 3.1365746384428688 Q -0.7998657946468715 3.118898800869897 -0.8038027361677555 3.1031892640679 L -0.8256899112026717 3.0264152076260054 Q -0.8324034150482029 3.000876336958601 -0.8332314986156941 2.9768540578339646 Q -0.8340595821831853 2.952831778709328 -0.8272773287026329 2.9311154833153297 Q -0.8204950752220804 2.9093991879213315 -0.8051939241811203 2.8904581622250296 Q -0.7898927731401602 2.8715171365287278 -0.7642338567857452 2.8556580047160494 Q -0.7382765809388372 2.8396144643939216 -0.7093313701880628 2.8357436404205094 Q -0.6803861594372886 2.8318728164470977 -0.6512087067414932 2.841053257913013 Q -0.6220312540456978 2.8502336993789283 -0.5947235578872183 2.872733754354912 Q -0.5674158617287387 2.895233809330896 -0.54473361506642 2.9319320269075586 Q -0.5297965258009907 2.9560991457995076 -0.5228333732610538 2.9800405327148365 Q -0.515870220721117 3.003981919630166 -0.5159289509376713 3.0269029650395542 Q -0.5159876811542258 3.049824010448943 -0.5226207548885315 3.0714481015882167 Q -0.5292538286228374 3.0930721927274902 -0.5412108324134002 3.112420311557878 L -0.5273801942046692 3.1347972734948675 L -0.5786980269134989 3.166515537120224 L -0.6238781117286867 3.093417461459391 Q -0.5976224763892855 3.0771895126278133 -0.5903957310219766 3.059528034452242 M -0.6552962971164658 3.6904720605680663 Q -0.6925412328078818 3.64991031555355 -0.7082672172444098 3.6024462672106528 Q -0.7239932016809377 3.554982218867755 -0.720288201546904 3.5030092822680503 Q -0.7165832014128701 3.451036345668346 -0.6909197831294094 3.4022336516040217 Q -0.6652563648459486 3.353430957539697 -0.624177909703859 3.315711564068773 Q -0.5818076792428357 3.276806026149077 -0.5319128044556951 3.256467061937056 Q -0.48201792966855433 3.236128097725035 -0.4316105275139835 3.235794484621627 Q -0.38120312535941264 3.2354608715182196 -0.3336442321543376 3.255361695813862 Q -0.28608533894926247 3.275262520109504 -0.2481287165885837 3.3165993303153805 Q -0.20993486533815064 3.3581944955850433 -0.19403503053396587 3.4074036508523506 Q -0.1781351957297811 3.456612806119658 -0.1828760366066602 3.5066797690020106 Q -0.1876168774835394 3.5567467318843633 -0.21224687551185328 3.604600510389671 Q -0.23687687354016718 3.6524542888949783 -0.27924710400119035 3.691359826814674 Q -0.32161733446221363 3.73026536473437 -0.37138303171746095 3.750485714501514 Q -0.4211487289727083 3.7707060642686576 -0.4716853086591725 3.7711582918169424 Q -0.5222218883456367 3.771610519365227 -0.5697807815507119 3.751709695069585 Q -0.6173396747557869 3.7318088707739427 -0.6552962971164658 3.6904720605680663 M -0.6072422552521345 3.6463474870737773 Q -0.5790120173713795 3.677091739664398 -0.5434600313845456 3.6903987877218594 Q -0.5079080453977116 3.7037058357793207 -0.470462188132018 3.701702596712093 Q -0.43301633086632463 3.6996993576448656 -0.3960781599926644 3.683400546021762 Q -0.35913998911900413 3.6671017343986585 -0.3278790264008101 3.638397038738395 Q -0.29584299849125595 3.608980656408869 -0.2756107586589358 3.5711173395588913 Q -0.25537851882661555 3.533254022708914 -0.25190920823086005 3.495544969404037 Q -0.24843989763510432 3.45783591609916 -0.259975425776789 3.4227143732713246 Q -0.2715109539184737 3.3875928304434892 -0.29618275845291486 3.3607239038096695 Q -0.3244129963336698 3.3299796512190487 -0.36008359676538093 3.3165434256296944 Q -0.39575419719709215 3.3031072000403396 -0.4332000544627856 3.305110439107567 Q -0.4706459117284791 3.3071136781747947 -0.5077132601340326 3.3235311042427753 Q -0.5447806085395863 3.339948530310756 -0.5757832161939935 3.3684159970812653 Q -0.6119529251241353 3.401628041646859 -0.630516420128858 3.4381971626902046 Q -0.6490799151335807 3.47476628373355 -0.6517977071997071 3.5094043450463364 Q -0.6545154992658334 3.544042406359123 -0.6449939961993614 3.57982282042114 Q -0.6354724931328893 3.615603234483157 -0.6072422552521345 3.6463474870737773 M -0.013398278703215305 3.563269592622025 L 0.29289717996211073 3.7897163841867316 L 0.2034444418578203 3.9107115515600515 L 0.14562623833443922 3.8679660706477446 L 0.19900596083956357 3.795763826247815 L 0.046422311541275074 3.682957459547533 L -0.055124269943082616 3.820310947917711 L 0.09181857901146151 3.9289470237972806 L 0.05678813611747363 3.9763297466847343 L -0.09015471283707044 3.867693670805165 L -0.19774821601146175 4.013226319673773 L -0.15487813339900358 4.044920529911191 L -0.19074263445713402 4.093431412867393 L -0.32950632291324855 3.990842258677857 L -0.29364182185511817 3.9423313757216545 L -0.2530280593801578 3.9723574696307873 L -0.008857531827420995 3.642088609504547 L -0.0494712943023814 3.6120625155954147 L -0.013398278703215305 3.563269592622025 M 0.24021212750716453 4.294436439893471 L 0.2839835980106453 4.3159078668449595 L 0.46625902105205574 3.9443227215636116 L 0.3573026987915928 3.89087586023113 L 0.32084761418331076 3.9651928892873998 L 0.2562925677573139 3.933526396301392 L 0.3180808467544022 3.807565330104325 L 0.7438292505004886 4.016409713114483 L 0.6820409715034004 4.14237077931155 L 0.6174859250774035 4.110704286325543 L 0.6539410096856856 4.036387257269273 L 0.5279799434886185 3.974598978272185 L 0.3457045204472081 4.346184123553533 L 0.39482933626406425 4.370281552362397 L 0.36826037629531627 4.4244448108271355 L 0.21364316753841656 4.34859969835821 L 0.24021212750716453 4.294436439893471 M 1.472080753523124 4.187672189385878 L 1.6416022570798185 4.219957722107944 L 1.630249823825921 4.279565893074017 L 1.5847684448229056 4.270903920880293 L 1.3474467344859462 4.705228603010345 L 1.2420126286153192 4.685148576561255 L 1.1870854960219217 4.203019999026371 L 0.9698134664003017 4.633307985401839 L 0.8654130282342887 4.613424821957151 L 0.8012483247255009 4.121681763542936 L 0.7550778339194093 4.112888549346276 L 0.7664302671733066 4.053280378380203 L 0.9359517707300011 4.085565911102269 L 0.9245993374761037 4.145174082068342 L 0.8791179584730882 4.136512109874617 L 0.9291215076277617 4.562002642704998 L 1.1502655414866352 4.126382174015125 L 1.2532877560464961 4.146002853453942 L 1.3074438875164822 4.634054502316439 L 1.512756261401464 4.25718913157356 L 1.4607283202692267 4.247280360351951 L 1.472080753523124 4.187672189385878 M 2.0663454075096372 4.634979884123629 L 2.110373369370422 4.631148219926048 L 2.0579809256619916 4.514594099478428 L 1.8542642449886793 4.532323148900571 L 1.823842189006586 4.656084447243641 L 1.878352998929462 4.651340482046636 L 1.883583524659494 4.711442144269294 L 1.7116648164411925 4.72640388065985 L 1.7064342907111605 4.666302218437193 L 1.7525588221843633 4.6622880940397256 L 1.876617880253734 4.17830296513375 L 1.9796992195309677 4.16933200530608 L 2.185151018880008 4.6246404727968216 L 2.238264115727939 4.620018147733072 L 2.243494641457971 4.68011980995573 L 2.0715759332396693 4.695081546346287 L 2.0663454075096372 4.634979884123629 M 1.869133590776506 4.472584684391425 L 2.0326660205451343 4.458352788800408 L 1.929582946536361 4.228617190459276 L 1.869133590776506 4.472584684391425 M 2.260785842602313 4.13204033307526 L 2.472943339158488 4.069009325320393 Q 2.5069019875771463 4.0589203684531325 2.5382962627927674 4.059289659254555 Q 2.5696905380083885 4.059658950055977 2.595848922214627 4.07073133212882 Q 2.6220073064208655 4.081803714201662 2.6414667358607877 4.104196807646044 Q 2.66092616530071 4.126589901090426 2.670915231505919 4.160212325267317 Q 2.6766089992428874 4.179377107048143 2.675260334030516 4.200085311038385 Q 2.6739116688181443 4.220793515028626 2.6663842904410537 4.2404101756775505 Q 2.658856912063963 4.260026836326475 2.6457416544714456 4.277461666374528 Q 2.632626396878928 4.294896496422582 2.6147869798556047 4.3075145303190325 Q 2.6242913831824 4.308715730427188 2.6349128599195746 4.313061115501123 Q 2.645534336656749 4.317406500575057 2.6560461566270863 4.3250775758110676 Q 2.666557976597423 4.332748651047078 2.676524024897101 4.343509082865448 Q 2.6864900731967785 4.354269514683818 2.6944838383244765 4.367628359797307 L 2.7556905931102524 4.470191543968668 L 2.7997359687819783 4.457105867239845 L 2.8193876430554123 4.520788691851831 L 2.7202014917335875 4.550256437157197 L 2.6361585572076898 4.406544706513621 Q 2.613349163618395 4.367949511057892 2.5861553205360233 4.35462344995472 Q 2.558961477453651 4.3412973888515465 2.5219768108590723 4.352285361677276 L 2.4564130837141374 4.371764040777433 L 2.5093551346017433 4.549962888914949 L 2.560461219350616 4.534779508283032 L 2.577642413223575 4.592610077867282 L 2.412220086273277 4.641756283596909 L 2.395038892400318 4.583925714012659 L 2.4434551832150393 4.569541458677158 L 2.3264832179520454 4.175822871565779 L 2.278066927137324 4.190207126901279 L 2.260785842602313 4.13204033307526 M 2.3923831693387494 4.15624430180357 L 2.440031015137595 4.316623265127334 L 2.537872269492344 4.287555082470177 Q 2.5570370512731713 4.281861314733208 2.571509342826413 4.2720731446592 Q 2.585981634379654 4.262284974585192 2.5945846508591184 4.248752019491328 Q 2.6031876673385828 4.235219064397464 2.6052989055917584 4.2183092177287325 Q 2.607410143844934 4.201399371060001 2.601516594783861 4.181562140795636 Q 2.590228949971975 4.143568801475751 2.5610725898224085 4.129179239263852 Q 2.531916229672842 4.114789677051953 2.482155041891045 4.129573495035663 L 2.3923831693387494 4.15624430180357 M 2.7573952893700744 3.9708503350088007 L 3.096346571851521 3.7970484779613707 L 3.1650031065415276 3.930943597836638 L 3.1010205900510153 3.9637514990288323 L 3.0600507231963725 3.8838513808748267 L 2.8911993016287276 3.9704322323137395 L 2.9688179946931874 4.121805503035196 L 3.110827970318471 4.048987966242764 L 3.138354599611434 4.102670858127487 L 2.9963446239861504 4.175488394919919 L 3.078604434780238 4.335912850901008 L 3.247455856347883 4.249331999462095 L 3.20648598949324 4.169431881308089 L 3.2704685059837524 4.136623980115895 L 3.3389650021313586 4.270206990154623 L 3.000013719649912 4.444008847202054 L 2.972487090356949 4.390325955317331 L 3.0174309068185776 4.367280405211594 L 2.830025773667067 4.001799786624326 L 2.7850819572054384 4.0248453367300625 L 2.7573952893700744 3.9708503350088007 M 3.299414781948396 3.6552272310927942 L 3.463180640166555 3.515908597241903 Q 3.490430424078875 3.492726703844202 3.5192949015253694 3.480374423336094 Q 3.548159378971864 3.4680221428279863 3.5765611339179584 3.4675760206135564 Q 3.604962888864053 3.4671298983991266 3.6316797843208963 3.4798598791739104 Q 3.65839667977774 3.492589859948694 3.6811240262460747 3.519305334372538 Q 3.6999877238147922 3.5414791781443276 3.7076090621649116 3.5688423496450863 Q 3.715230400515031 3.5962055211458446 3.711166846929832 3.624989986889326 Q 3.7071032933446335 3.653774452632807 3.691267158837876 3.681982559143546 Q 3.6754310243311186 3.710190665654286 3.647112621441845 3.7342816529107203 L 3.5752479952417064 3.7954182149105407 L 3.69570293152388 3.93701022935691 L 3.7363104526481217 3.9024646627250412 L 3.775401488573657 3.9484152787340516 L 3.6439613544083485 4.060233823358257 L 3.604870318482813 4.014283207349248 L 3.643340601653147 3.9815558284348453 L 3.377203374508949 3.6687176229316414 L 3.3387330913386144 3.701445001846043 L 3.299414781948396 3.6552272310927942 M 3.4295657043796814 3.6241720238537054 L 3.5379751470336376 3.7516048368554378 L 3.61090839221073 3.689559180996884 Q 3.6261362126323204 3.6766045935099334 3.635303324281054 3.661668205401779 Q 3.644470435929788 3.646731817293624 3.646869070665513 3.6308762404348958 Q 3.649267705401239 3.6150206635761672 3.6442499170031377 3.5985668675241125 Q 3.6392321286050366 3.5821130714720577 3.6258229941887192 3.56635094156199 Q 3.6003683661441843 3.5364296102072856 3.567997251993262 3.5351870342908516 Q 3.535626137842339 3.5339444583744166 3.495820080950813 3.5678082046122355 L 3.4295657043796814 3.6241720238537054 M 4.1913791963478015 3.423017379376371 L 4.219323137434844 3.3887788158454395 L 4.099233147077023 3.3450955768753525 L 3.9699369752218963 3.5035168668637087 L 4.037465743058851 3.61160121342769 L 4.072063003452333 3.569210610960823 L 4.118801360018366 3.6073563083177382 L 4.0096869233927706 3.7410497468670885 L 3.962948566826737 3.702904049510173 L 3.9922231717750676 3.667035078192055 L 3.7316907178664387 3.2407076273382054 L 3.797115024379753 3.160545911134835 L 4.266783481820774 3.3306276047690964 L 4.300493632973397 3.2893239408270207 L 4.34723198953943 3.327469638183936 L 4.238117552913834 3.4611630767332864 L 4.1913791963478015 3.423017379376371 M 3.9374703331252845 3.451212959389802 L 4.041262114305729 3.324041151989201 L 3.804686589142924 3.2378055086263817 L 3.9374703331252845 3.451212959389802 M 3.9535080624241425 2.9508469695594903 L 4.057018283186049 2.755221445965562 Q 4.073586480170126 2.72390896120647 4.095827685004329 2.7017489589606853 Q 4.118068889838532 2.6795889567149 4.1442877539632645 2.6686605591627885 Q 4.170506618087997 2.657732161610677 4.200119966809708 2.659512500236476 Q 4.229733315531418 2.661292838862275 4.260735775688935 2.6776969942920545 Q 4.278407177978719 2.6870473628870286 4.292250691503036 2.702507173482847 Q 4.306094205027353 2.7179669840786653 4.314832856870304 2.7370748558653037 Q 4.323571508713255 2.756182727651942 4.326840341256646 2.777753495239719 Q 4.330109173800038 2.7993242628274952 4.326631214127971 2.8208965454063857 Q 4.334142523602743 2.8149503874642825 4.344681087569628 2.8104076119872206 Q 4.355219651536512 2.8058648365101586 4.36805631225468 2.8037285088265023 Q 4.380892972972847 2.801592181142846 4.3955536642864255 2.8020082842998724 Q 4.410214355600003 2.8024243874568993 4.425349870565011 2.806067903674377 L 4.541437479645829 2.8341595500603347 L 4.56292692325884 2.793546327253988 L 4.622159680666717 2.8240941733674183 L 4.573767422148868 2.9155514308320916 L 4.412309385187068 2.8749610542788036 Q 4.3687810464085155 2.8642306641947073 4.340227968518459 2.8743207954683094 Q 4.311674890628401 2.8844109267419116 4.2936303196556445 2.9185136329151797 L 4.261642216567576 2.978968430222337 L 4.425955255402412 3.065910454000166 L 4.450889571655677 3.018786714560741 L 4.504213803126605 3.047001861899961 L 4.423505358412092 3.199533965874942 L 4.370181126941163 3.1713188185357217 L 4.393803110760045 3.126675275908898 L 4.030764302315528 2.9345826158261845 L 4.007142318496646 2.979226158453008 L 3.9535080624241425 2.9508469695594903 M 4.062916446957895 2.8738177939174525 L 4.210798181909248 2.952065615317499 L 4.2585342742099055 2.861848456259126 Q 4.26788464280488 2.8441770539693416 4.271026247610397 2.826990262080055 Q 4.274167852415915 2.8098034701907677 4.270526547991934 2.7941863748074907 Q 4.266885243567953 2.7785692794242136 4.256287959106665 2.765223950527246 Q 4.245690674645377 2.751878621630279 4.227399223152442 2.742200169926709 Q 4.192366443174449 2.7236634742910586 4.161680067582964 2.734410529277409 Q 4.1309936919914785 2.7451575842637594 4.106715541955405 2.7910412252968837 L 4.062916446957895 2.8738177939174525 M 4.670607401044127 2.5153221643212698 L 4.68463519436077 2.4686297150383747 L 4.288253250808137 2.3495448509114754 L 4.253335146581097 2.465772098766739 L 4.3326115352916235 2.489589071592119 L 4.311923063133984 2.558452036361856 L 4.177556302607668 2.5180842858103647 L 4.313999299471709 2.063924635231415 L 4.448366059998025 2.104292385782906 L 4.427677587840385 2.1731553505526433 L 4.348401199129859 2.149338377727264 L 4.308033448578367 2.2837051382535805 L 4.7044153921310015 2.4027900023804794 L 4.720158814846083 2.350386965775216 L 4.777936521872399 2.367745098512357 L 4.7283851080704435 2.532680297058411 L 4.670607401044127 2.5153221643212698 M 4.356416364096172 1.6608027055785417 L 4.371243576653944 1.488872343050463 L 4.431698765103858 1.494085976734395 L 4.427811142299077 1.539165279104562 L 4.897125119687715 1.5796387475295384 L 4.88941014729993 1.6690984483571565 L 4.428902727480775 1.8775803577010097 L 4.808058100129078 1.9102785805164224 L 4.812759411427884 1.8557640753245923 L 4.87286514792144 1.8609475723976348 L 4.858037935363668 2.032877934925714 L 4.797932198870112 2.0276944378526713 L 4.802151324394681 1.9787711639625676 L 4.3929430834996 1.9434811926106337 L 4.388603411531471 1.993802274326169 L 4.327449319168841 1.9885283674204572 L 4.339745056411872 1.8459519692264406 L 4.795667276813166 1.6416512959845626 L 4.779134675795106 1.6374091230109902 L 4.421994776397349 1.6066095066816337 L 4.416871552546086 1.6660163392624738 L 4.356416364096172 1.6608027055785417 M 4.361330075340222 1.4091703717538246 L 4.319517897279802 1.0305586984329982 L 4.469079967127532 1.0140417330665892 L 4.476972689505419 1.0855107874227303 L 4.387723528943604 1.0953670651238976 L 4.408552615804274 1.2839756427174216 L 4.577637939524901 1.2653026166038823 L 4.560119945954467 1.1066761788865933 L 4.620084225706936 1.1000539923061217 L 4.63760221927737 1.2586804300234107 L 4.81679779946789 1.2388908724515362 L 4.795968712607221 1.0502822948580122 L 4.7067195520454055 1.0601385725591792 L 4.698826829667517 0.988669518203038 L 4.848040269981802 0.9721910539213992 L 4.889852448042222 1.3508027272422256 L 4.829888168289752 1.3574249138226973 L 4.824344012082846 1.3072222610066762 L 4.416098828419229 1.3523070312725616 L 4.421642984626136 1.4025096840885827 L 4.361330075340222 1.4091703717538246 M 4.303112497358913 0.9506539710024916 L 4.238763877022985 0.7388923919933618 Q 4.228464018617393 0.7049971154800145 4.228638146676062 0.6736011512261593 Q 4.228812274734731 0.642205186972304 4.239721835032631 0.615978479150797 Q 4.25063139533053 0.5897517713292901 4.272903090848669 0.5701535161293123 Q 4.2951747863668075 0.5505552609293346 4.328734466082993 0.5403573813198373 Q 4.347863483521219 0.5345445899424239 4.368579671083649 0.535764501100971 Q 4.389295858646078 0.536984412259518 4.4089589325687335 0.5443897025414145 Q 4.428622006491388 0.551794992823311 4.446138027791125 0.5648016172258896 Q 4.463654049090862 0.5778082416284684 4.476382734003702 0.5955688767391183 Q 4.477524828870108 0.5860571900530273 4.481804103911505 0.5754089064054531 Q 4.486083378952901 0.5647606227578789 4.493688961557039 0.5542013203369355 Q 4.501294544161176 0.5436420179159921 4.511992816326989 0.5336092723149364 Q 4.5226910884928015 0.5235765267138806 4.535999984013717 0.5154998737130163 L 4.638180708205151 0.4536567400400798 L 4.624821485916709 0.40969355961187687 L 4.6883809197852715 0.38964639475950846 L 4.718464664633289 0.48864744992225534 L 4.575278145100406 0.573582113001327 Q 4.53682548493128 0.5966309844291211 4.523668725849342 0.6239071406204547 Q 4.510511966767405 0.6511832968117883 4.521729634337852 0.6880989444995923 L 4.541615499576372 0.7535403199461538 L 4.719481802072154 0.6994915580158184 L 4.703981025065718 0.6484808448472167 L 4.761703674177557 0.6309404919188815 L 4.811877241856283 0.7960541161225135 L 4.754154592744444 0.8135944690508488 L 4.739469646106769 0.7652685302595418 L 4.346485796630238 0.8846857004867544 L 4.361170743267913 0.9330116392780614 L 4.303112497358913 0.9506539710024916 M 4.326497952595623 0.8189087282430311 L 4.486577624841828 0.7702648425057292 L 4.45690179517819 0.6726061745316297 Q 4.451089003800777 0.6534771570934041 4.441211059028838 0.6390659911696406 Q 4.431333114256899 0.6246548252458771 4.417746941876767 0.6161360996266423 Q 4.4041607694966345 0.6076173740074076 4.38723812549908 0.6056112928889776 Q 4.3703154815015255 0.6036052117705478 4.350515270468977 0.6096219607401512 Q 4.3125928323896865 0.621145564698883 4.298384792302948 0.6503908110598724 Q 4.28417675221621 0.6796360574208616 4.299269614038265 0.729304383400816 L 4.326497952595623 0.8189087282430311" fill="#1192dc" fill-rule="nonzero"></path></g><g clip-path="url(#SvgjsClipPath1004)"><g clip-path="url(#SvgjsClipPath10004ca97022-c27b-48c6-9a6c-fb62125f0577)"><path d=" M 2.1058867042525082 0 L 0.5725025484445775 1.5320779127977775 L 0.5725025484445775 3.053125329065371 L 2.829835608102007 3.053125329065371 L 2.8296904699897683 1.5320779127977777 L 2.1058867042525082 0.8089998376217139 L 1.9048704188011136 1.00972584684863 L 2.5455100462252696 1.6497849218238292 L 2.5455100462252696 2.7690900434131107 L 0.8565378340968367 2.7690900434131107 L 0.8565378340968367 1.6496397837115897 L 2.1058867042525082 0.40174229467831074 L 3.1177896227847275 1.4127743845370944 L 3.1177896227847275 3.053125329065371 L 3.4022603227737047 3.053125329065371 L 3.4022603227737047 1.2952125136232826 Z M 1.2961611760695981 0 L -0.00006730433935875258 1.2952125136232822 L -0.00006730433935875258 3.053125329065371 L 0.28425825753737916 3.053125329065371 L 0.28425825753737916 1.4127743845370944 L 1.4971774615209927 0.2008711473391557 Z" fill="#1192dc" transform="matrix(1,0,0,1,0,0)" fill-rule="nonzero"></path></g></g><g transform="matrix(0.8814283568498933,-0.4723177444696496,0.4723177444696496,0.8814283568498933,0.3568382070775174,-0.199459182651194)"><g clip-path="url(#SvgjsClipPath1005)"><path d=" M -0.21884329732174174 -0.6282222619619247 C -0.1152325714160401 -0.6282222619619247 -0.02940913936724182 -0.7138620832354258 -0.02940913936724182 -0.8176564199164246 C -0.02940913936724182 -0.9212675631193428 -0.1152325714160401 -1.0070905778709245 -0.21902690809703884 -1.0070905778709245 C -0.32263784265134876 -1.0070905778709245 -0.4082774552762417 -0.9212675631193428 -0.4082774552762417 -0.8176564199164246 C -0.4082774552762417 -0.7138620832354258 -0.32245444052466 -0.6282222619619247 -0.21884329732174174 -0.6282222619619247 Z M -0.21884329732174174 -0.6654493466534048 C -0.3031993037084216 -0.6654493466534048 -0.3708673857552892 -0.7332997875839199 -0.3708673857552892 -0.8176564199164246 C -0.3708673857552892 -0.9020124263031043 -0.3033827058351103 -0.9696807169985803 -0.21902690809703884 -0.9696807169985803 C -0.13467027576453416 -0.9696807169985803 -0.06681983483401915 -0.9020124263031043 -0.06663622405872216 -0.8176564199164246 C -0.06663622405872216 -0.7332997875839199 -0.13448666498923711 -0.6654493466534048 -0.21884329732174174 -0.6654493466534048 Z M -0.2192105188723359 -0.6949731247267401 C -0.15099076990514393 -0.6949731247267401 -0.09616000213205733 -0.7496223682106125 -0.09634361290735438 -0.8178400306917216 C -0.09634361290735438 -0.8858740823975336 -0.15117438068044092 -0.94070610206227 -0.2192105188723359 -0.94070610206227 C -0.287428181353445 -0.94070610206227 -0.3418929794675872 -0.8860576931728307 -0.3418929794675872 -0.8178400306917216 C -0.3418929794675872 -0.7496223682106125 -0.2872445705781479 -0.6949731247267401 -0.2192105188723359 -0.6949731247267401 Z" fill="#202020" transform="matrix(1,0,0,1,0,0)" fill-rule="nonzero"></path></g></g><g transform="matrix(-0.8814283568498933,-0.4723177444696496,-0.4723177444696496,0.8814283568498933,6.42999804819582,1.614200277151665)"><g clip-path="url(#SvgjsClipPath1006)"><path d=" M 3.621070576418824 -0.6282222619619247 C 3.7246813023245258 -0.6282222619619247 3.810504734373324 -0.7138620832354258 3.810504734373324 -0.8176564199164246 C 3.810504734373324 -0.9212675631193428 3.7246813023245258 -1.0070905778709245 3.620886965643527 -1.0070905778709245 C 3.517276031089217 -1.0070905778709245 3.431636418464324 -0.9212675631193428 3.431636418464324 -0.8176564199164246 C 3.431636418464324 -0.7138620832354258 3.5174594332159055 -0.6282222619619247 3.621070576418824 -0.6282222619619247 Z M 3.621070576418824 -0.6654493466534048 C 3.536714570032144 -0.6654493466534048 3.4690464879852767 -0.7332997875839199 3.4690464879852767 -0.8176564199164246 C 3.4690464879852767 -0.9020124263031043 3.5365311679054554 -0.9696807169985803 3.620886965643527 -0.9696807169985803 C 3.7052435979760316 -0.9696807169985803 3.7730940389065464 -0.9020124263031043 3.7732776496818436 -0.8176564199164246 C 3.7732776496818436 -0.7332997875839199 3.7054272087513285 -0.6654493466534048 3.621070576418824 -0.6654493466534048 Z M 3.6207033548682297 -0.6949731247267401 C 3.688923103835422 -0.6949731247267401 3.7437538716085084 -0.7496223682106125 3.743570260833211 -0.8178400306917216 C 3.743570260833211 -0.8858740823975336 3.6887394930601247 -0.94070610206227 3.6207033548682297 -0.94070610206227 C 3.552485692387121 -0.94070610206227 3.4980208942729787 -0.8860576931728307 3.4980208942729787 -0.8178400306917216 C 3.4980208942729787 -0.7496223682106125 3.5526693031624177 -0.6949731247267401 3.6207033548682297 -0.6949731247267401 Z" fill="#202020" transform="matrix(1,0,0,1,0,0)" fill-rule="nonzero"></path></g></g></g><defs><clipPath id="SvgjsClipPath1004"><path d=" M 0 0 h 3.4022272790970822 v 3.0530241080414613 h -3.4022272790970822 Z"></path></clipPath><clipPath id="SvgjsClipPath10004ca97022-c27b-48c6-9a6c-fb62125f0577"><path d=" M 0 0 L 3.4022272790970822 0 L 3.4022272790970822 3.0530241080414613 L 0 3.0530241080414613 Z"></path></clipPath><clipPath id="SvgjsClipPath1005"><path d=" M -0.5109513489307117 -1.1025514891367358 h 0.5842161032179399 v 0.5842161032179399 h -0.5842161032179399 Z"></path></clipPath><clipPath id="SvgjsClipPath1006"><path d=" M 3.328962524809854 -1.1025514891367358 h 0.5842161032179399 v 0.5842161032179399 h -0.5842161032179399 Z"></path></clipPath></defs></svg>